<?xml version="1.0" encoding="utf-8"?>
<!-- Generator: Adobe Illustrator 12.0.0, SVG Export Plug-In . SVG Version: 6.00 Build 51448)  -->
<!DOCTYPE svg PUBLIC "-//W3C//DTD SVG 1.1//EN" "http://www.w3.org/Graphics/SVG/1.1/DTD/svg11.dtd" [
	<!ENTITY ns_svg "http://www.w3.org/2000/svg">
	<!ENTITY ns_xlink "http://www.w3.org/1999/xlink">
]>
<svg  version="1.1" xmlns="&ns_svg;" xmlns:xlink="&ns_xlink;" width="800" height="389" viewBox="0 0 800 389"
	 overflow="visible" enable-background="new 0 0 800 389" xml:space="preserve">
<g id="Layer_1" display="none">
	<path id="Unnamed" display="inline" fill="none" stroke="#000000" stroke-width="10" stroke-linecap="round" d="M30.007,237.054
		c0,0,26.006-43.009,51.011-68.015c33.007-40.009,52.012-61.014,81.018-104.023c49.011-73.017,2-30.007-16.003,16.003
		c-15.003,66.015,52.012-5.001,26.006,61.014c-7.001,31.007-27.006,52.012-39.009,47.01c-7.092-4.431,26.006-30.006,55.012-15.003
		c18.004,4,44.01,73.017-11.002,161.036c-26.006,36.008-48.011,47.01-42.009-18.004c11.002-56.014,74.017-134.03,87.02-146.033
		c66.015-73.016-14.003,48.011,29.006,15.003c32.007-19.004-2,28.006,78.017-38.008 M376.084,110.025
		c0,0-23.005,45.01-23.005,58.013 M376.084,69.016c60.014-51.011,121.027-62.014,77.018-11.002
		c-23.005,29.007,15.003,30.007,27.006,53.012c12.003,18.004-13.003,61.014-38.009,77.018
		c-60.013,26.006-8.001-63.014,50.012-21.005c18.004,13.003,53.012-1,99.022-30.007c127.028-91.02,0-39.008-25.006,2
		c-38.009,43.01-29.007,88.02,89.02,53.012c23.006-7.002,94.021-34.008,121.027-31.007"/>
</g>
<g id="Layer_2" display="none">
	<path display="inline" fill="none" stroke="#000000" stroke-width="8" d="M157.5,25C103.531,47.602,49.407,71.432,10.432,117
		c-10.321,12.067-25.704,29.867-25.02,47.068c0.825,20.726,25.518,7.906,36.726,3.025c60.641-26.412,114.652-65.132,180.604-78.89
		c39.516-8.243,92.513-7.207,98.606,42.48c5.936,48.394-27.992,100.507-59.075,134.282c-38.243,41.555-93.161,75.756-149.771,83.329
		c-40.894,5.471-82.638-0.668-115.246-27.52c-20.563-16.934-31.615-42.745-18.103-68.013c6.638-12.414,19.149-21.177,32.42-25.31
		c6.478-2.018,24.358-7.817,24.925,3.548"/>
	<path display="inline" fill="none" stroke="#000000" stroke-width="8" d="M271.5,317c33.99-20.364,60.109-40.847,84.269-72.156
		c20.554-26.639,36.918-55.963,49.848-86.983c3.818-9.163,17.703-38.282,2.994-44.82c-15.625-6.945-45.513,31.754-52.669,39.931
		c-22.531,25.744-41.411,54.609-56.778,85.124c-7.907,15.701-25.736,46.168-15.826,64.544c8.279,15.354,30.87,10.072,44.32,7.426
		c36.802-7.24,72.258-28.675,103.011-48.919c61.42-40.435,114.628-95.063,179.641-129.806c10.438-5.578,37.671-22.266,42.173-3.073
		c2.005,8.547-5.834,21.575-9.069,29.046c-7.899,18.242-17.813,36.017-27.151,53.561c-8.123,15.262-31.87,45.854-27.4,65.11
		c4.018,17.309,23.557,2.758,33.5-3.799c27.886-18.392,54.417-38.652,82.853-56.321c8.729-5.423,22.216-17.022,33.154-16.71
		c-0.18,2.692-1.661,5.115-3.868,6.846"/>
	<path display="inline" fill="none" stroke="#000000" stroke-width="8" d="M761.5,236c4.858,0.002,8.232-0.655,12.872-1.174
		c-0.728-0.887-1.114-2.624-2.525-3.878c1.594,0.563,1.974-0.012,2.653-0.948"/>
</g>
<g id="Layer_3" display="none">
	<path display="inline" fill="none" stroke="#000000" stroke-width="8" d="M279.5,6C224.708-4.381,171.203-8.521,118.222,13.157
		c-26.919,11.015-51.604,27.586-73.52,46.549C26.436,75.512,2.5,101.43,1.658,127.271c-1.789,54.894,64.532,42.824,96.826,29.546
		c35.741-14.695,69.413-33.438,106.091-45.853c27.884-9.438,62.816-19.614,89.758-2.048c54.553,35.567-11.322,123.102-41.746,150.08
		c-54.932,48.713-137.756,96.066-213.71,74.143c-49.524-14.294-88.015-66.325-49.881-112.494
		c18.874-22.852,51.736-43.303,82.619-40.474c27.174,2.489,35.833,26.504,37.728,50.958c2.792,36.047-13.056,70.412-11.984,105.781
		c0.954,31.481,32.771,21.956,53.777,15.679c20.737-6.197,43.715-13.85,62.052-25.509c30.332-19.286,55.736-49.172,79.114-76.004
		c34.248-39.31,65.828-81.53,104.223-116.921c-29.131,49.689-67.386,97.574-77.469,156.088
		c-2.854,16.561-6.015,44.078,19.441,34.793c12.608-4.6,23.036-17.797,32.091-26.988c17.559-17.824,33.498-37.122,51.004-55.006
		c8.474-8.657,41.846-50.536,57.913-44.018c21.783,8.839-0.263,67.056,8.056,86.056c21.785,49.764,93.83-36.02,109.018-51.139
		C668.799,162.047,746.367,98.792,829.5,40"/>
</g>
<g id="Layer_4" display="none">
	<path display="inline" fill="none" stroke="#000000" stroke-width="8" d="M141.5,25C90.278,44.611,33.345,65.254-3.822,107.957
		c-15.168,17.428-58.09,84.022-4.991,75.313c59.278-9.722,110.851-31.578,166.507-53.322
		c37.668-14.716,124.679-51.581,139.871,10.009c11.426,46.326-10.947,101.438-40.447,136.872
		c-43.22,51.912-116.123,90.954-183.862,94.287c-58.679,2.887-125.554-27.117-114.963-96.315
		c4.965-32.44,30.958-68.839,65.101-75.189C43.688,195.837,63.267,209.463,75.5,224"/>
	<path display="inline" fill="none" stroke="#000000" stroke-width="8" d="M277.5,329c44.854-24.63,83.423-53.34,117.041-92.178
		c21.929-25.334,44.651-54.009,52.043-87.484c7.037-31.866-23.418-7.957-34.948,2.341c-19.596,17.501-36.883,39.434-51.73,61.003
		c-16.333,23.73-34.055,48.849-43.184,76.535c-2.518,7.638-8.259,22.999,0.758,28.854c8.021,5.208,29.082-6.954,36.056-10.25
		c16.585-7.838,50.64-31.065,62.555-6.134c2.893,6.052,1.896,16.751,7.035,21.396c8.229,7.44,40.675-12.701,49.818-16.086
		c26.99-9.99,54.557-16.998,82.602-23.091C606.417,272.857,654.004,257.63,700.5,234"/>
</g>
<g id="Layer_5" display="none">
	<path display="inline" fill="none" stroke="#000000" stroke-width="8" d="M141.5,34C102.346,48.579,66.74,61.681,36.703,91.761
		C22.136,106.35-15.875,147.74-3.639,172.063c5.866,11.66,21.624,8.204,32.061,5.322c32.281-8.913,61.552-27.424,91.916-41.102
		c30.283-13.642,61.072-24.534,93.286-32.569c23.739-5.922,48.685-12.755,73.207-7.797c34.818,7.039,44.894,35.359,33.61,67.013
		c-19.514,54.742-72.359,98.776-118.202,130.907c-54.302,38.062-124.661,51.506-189.682,37.978
		C-3.008,328.575-58.625,314.137-56.5,290"/>
	<path display="inline" fill="none" stroke="#000000" stroke-width="8" d="M250.5,310c28.76-13.302,53.76-26.982,78.048-46.972
		c12.646-10.407,31.04-26.429,34.046-42.723c-7.017,9.118-27.231,34.676-21.959,47.056c6.718,15.775,73.995-29.427,86.756-34.478
		c11.881-4.701,20.811-4.817,33.089-3.884c17.487,1.329,32.571-2.532,49.204-9.083c28.111-11.072,54.42-26.629,82.621-37.739
		C626.232,168.813,662.01,161.44,695.5,147"/>
</g>
<g id="Layer_6" display="none">
	<path display="inline" fill="none" stroke="#000000" stroke-width="8" d="M254.5,95c-6.917-26.499-6.418-41.404-33.31-46.634
		c-22.067-4.291-48.406,5.197-67.491,15.646C112.059,86.81,44.757,144.73,72.12,200.24c8.584,17.413,34.545,25.673,51.943,28.97
		c35.477,6.724,72.546,1.135,108.321,0.723c24.857-0.287,104.2-1.891,83.178,44.219c-18.546,40.678-81.317,69.421-124.07,66.778
		c-12.427-0.769-28.38-4.268-35.194-16.029c-6.164-10.639-2.705-23.402,9.137-27.885c11.839-4.481,22.469,3.608,31.725,9.894
		c17.921,12.17,33.426,22.593,55.979,22.817c30.968,0.309,57.008-16.541,81.274-33.995c12.396-8.916,31.495-29.39,46.937-31.604
		c-0.94,12.19-20.871,24.731-17.475,36.864c5.855,1.151,15.833-6.504,19.925-8.827c12.413-7.052,24.769-14.087,37.746-20.08
		c14.874-6.868,34.917-14.934,51.702-10.24c11.413,3.19,19.109,12.494,31.282,14.882c9.118,1.788,19.588,0.354,28.535-1.543
		c38.773-8.222,76.765-21.168,115.436-30.184"/>
</g>
<g id="Layer_7" display="none">
	<path display="inline" fill="none" stroke="#000000" stroke-width="8" d="M194.5,95c-12.561-50.055-52.648-68.407-100.703-47.91
		C53.391,64.326-16.811,125.326,19.522,174.913c16.961,23.148,54.025,24.84,79.89,25.933c40.703,1.718,83.245-4.461,123.321,5.016
		c27.019,6.389,49.828,23.455,40.862,53.821c-10.334,34.999-52.705,62.789-83.665,77.27c-16.116,7.538-51.798,21.43-65.63,2.136
		c-11.243-15.682,7.231-29.941,21.968-31.079c9.376-0.724,19.155,2.641,28.585,3.059c15.874,0.705,31.336-0.403,46.575-5.131
		c15.348-4.762,28.856-12.792,43.155-19.805c8.959-4.395,26.258-14.922,36.856-12.917c14.405,2.726,15.344,20.762,29.603,21.117
		c34.192,0.851,58.721-40.808,93.914-41.333c22.85-0.341,23.267,25.984,44.445,28.894c21.805,2.994,48.429-9.817,68.123-17.031
		c35.519-13.01,71.203-23.959,107.976-32.861"/>
</g>
<g id="Layer_8" display="none">
	<path display="inline" fill="none" stroke="#000000" stroke-width="8" d="M210.5,136c2.408-35.915,7.096-76.173-19.893-104.587
		C163.107,2.46,120.25,8.804,89.61,30.293c-26.043,18.265-58.925,55.662-42.676,89.794c24.454,51.37,120.591,46.791,165.271,50.797
		c31.538,2.828,95.653,6.302,98.235,50.203c3.065,52.123-67.019,96.9-104.949,118.114c-37.901,21.198-91.348,41.599-133.182,18.66
		c-21.366-11.715-31.262-45.83-2.014-55.869c14.908-5.116,29.592,2.274,42.532,8.63c19.857,9.752,38.793,21.96,60.737,26.379
		c60.689,12.219,125.081-14.216,169.083-56.065c4.302-4.091,32.745-28.484,30.742-36.158c-2.348-8.995-13.615-3.716-20.087-0.943
		c-11.518,4.933-85.572,63.811-67.916,76.254c8.382,5.907,33.044-18.011,38.024-21.949c15.028-11.883,29.995-28.672,47.944-36.233
		c28.932-12.189,5.494,33.526,15.869,44.464c8.673,9.144,23.029-3.192,30.248-9.035c33.075-26.773,54.892-67.072,84.723-97.472
		c10.198-10.393,30.086-34.698,46.528-36.013c17.896-1.431,12.288,24.672,10.58,36.314c-2.592,17.658-9.476,42.363,12.2,50.146
		c15.983,5.738,39.926-2.431,54.941-6.315c32.421-8.387,64.196-19.762,96.058-29.994"/>
</g>
<g id="Layer_9">
	<path fill="none" stroke="#000000" stroke-width="8" d="M269.5,76c0.316-14.261,5.523-30.64-9.092-37.888
		c-10.542-5.228-23.095-3.261-34.174-1.068c-40.648,8.047-81.771,34.07-110.721,63.111c-20.884,20.949-52.392,60.369-35.833,92.033
		c21.204,40.544,85.101,29.98,120.785,24.92c52.636-7.466,102.709-28.566,155.931-32.789c11.071-0.878,30.038-2.842,36.941,8.455
		c6.65,10.881-3.267,28.12-9.044,37.152c-17.88,19.406-37.071,37.442-57.576,54.107c-18.829,15.818-36.55,28.345-57.273,40.94
		c-30.988,18.836-62.563,36.29-95.724,51.061c-23.438,10.44-57.395,27.424-83.989,25.784c14.08-7.887,33.802-11.407,49.396-16.414
		c47.658-15.3,90.815-39.909,134.457-64.027c19.336-10.686,39.207-20.906,59.125-30.472c6.865-3.297,29.318-16.671,37.927-10.716
		c16.903,11.694-11.7,42.15-12.413,56.08c-1.148,22.452,24.824-3.3,32.486-9.257c11.599-9.019,41.003-38.588,56.909-24.114
		c5.59,5.085,5.558,14.396,10.024,20.138c7.881,10.13,17.267,8.691,28.817,3.895c34.645-14.388,63.285-45.474,91.045-69.474
		C623.811,217.422,673.096,182.542,725.5,151"/>
</g>
</svg>
